<svg xmlns="http://www.w3.org/2000/svg" width="300" height="300" viewBox="0 0 300 300">
  <defs>
    <linearGradient id="gold" x1="0%" y1="0%" x2="100%" y2="100%">
      <stop offset="0%" stop-color="#f7d7a3"/>
      <stop offset="100%" stop-color="#d4a54c"/>
    </linearGradient>
    <linearGradient id="navy" x1="0%" y1="0%" x2="0%" y2="100%">
      <stop offset="0%" stop-color="#15304c"/>
      <stop offset="100%" stop-color="#071628"/>
    </linearGradient>
  </defs>
  <rect width="300" height="300" fill="#fdf9f4"/>
  <path d="M150 30 L250 70 L230 190 C220 240 190 270 150 283 C110 270 80 240 70 190 L50 70 Z" fill="url(#navy)" stroke="#0b1420" stroke-width="4"/>
  <g fill="none" stroke="url(#gold)" stroke-width="4" stroke-linecap="round">
    <path d="M115 120 h70 a18 18 0 0 1 0 36 h-70 a18 18 0 0 1 0-36 z" fill="none"/>
    <path d="M150 76 v44"/>
    <path d="M150 156 v40"/>
    <path d="M126 90 l48 80"/>
    <path d="M174 90 l-48 80"/>
    <circle cx="150" cy="190" r="30"/>
  </g>
  <text x="150" y="260" text-anchor="middle" font-family="Cormorant Garamond, 'Times New Roman', serif" font-size="44" fill="#0c2743">CONCALAB</text>
  <text x="150" y="285" text-anchor="middle" font-family="Barlow, 'Segoe UI', sans-serif" font-size="16" letter-spacing="5" fill="#b88c3f">LABORATORIO &amp; INVESTIGACIÓN</text>
</svg>






